<svg version="1.0" xmlns="http://www.w3.org/2000/svg" width="368" height="368" viewBox="0 0 276 276"><g fill="#191919"><path d="M114 2.5c-18.6 3.4-36.9 10.9-54 22-9.4 6.1-28.9 25.6-35.4 35.4C8.1 84.7.9 108.7.9 138.5c0 24.8 4.1 41.8 15.2 63.5 7.2 14 13.6 22.7 25.5 34.6 14.7 14.7 33.8 26.4 53.8 32.9 15 4.9 22.9 6 42.6 6 19.7 0 27.6-1.1 42.6-6 28.8-9.4 52-26.7 70.6-52.6 14.1-19.6 21.9-41.9 23.9-68.2 2.5-33.9-6.4-65.3-26.6-92.8-7.4-10.1-23.4-25.4-33.4-32.1-15.7-10.3-35.3-18.3-52.8-21.3C151.6.6 124.4.7 114 2.5zm55.5 5.9c25.9 6.6 46.1 18.1 63.6 36.3 17.8 18.5 27.8 36.3 34.6 61.3 3.4 12.9 4.4 41.7 1.8 55.5-3.5 18.9-10.7 36.6-21.3 52.5-5.2 7.7-21.7 25.6-26.8 29.1-1.2.8-5.5 3.7-9.5 6.5-13.5 9.4-30 16.3-47.9 20.1-13 2.7-39 2.5-53.3-.6-17.4-3.6-32.3-9.7-44.8-18.2-31.7-21.4-51.5-50.7-58.9-86.8-2.8-13.8-2.8-37.4 0-51.1 5.6-27.7 17.2-49.2 37-69 15.8-15.9 32.5-26.3 51.5-32.4 18.4-5.8 24.4-6.6 47-6.1 14.3.2 18.6.7 27 2.9z"/><path d="M109.5 53C96 55.3 85 61 75.9 70.7 64.8 82.6 59.7 95 59.8 110.5c.2 31.2 24.7 55.5 56.1 55.7 12.8.1 21.9-2.5 33.4-9.3l3.7-2.3 2.2 2.2c2 2 2.1 2.2.5 4-1 1.1-1.7 3.5-1.7 5.8 0 3.9.7 4.7 20.3 24.1 14.9 14.8 21.2 20.3 24 21.2 12.3 4.1 24.3-8.4 19.3-20.2-.9-2.3-9.1-11.4-21.8-24.2-21.5-21.7-22.9-22.6-27.3-18.5-2.1 2-2.1 2-4.3 0-2.8-2.7-2.8-3.3.6-8.3 8.5-12.7 11.5-31 7.6-46.1-3.9-15.1-15.3-29.1-28.8-35.5-12.1-5.8-23.8-7.8-34.1-6.1zm27.8 16.4c9.4 4.8 16.6 12.1 21 21.3 3 6.4 3.2 7.4 3.2 18.4 0 11.3-.1 11.7-3.7 19-4.7 9.5-13 17.7-22.5 22.2-6.5 3.1-7.3 3.2-19.3 3.2-12.5 0-12.5 0-19.5-3.7-9.1-4.7-16.5-12.3-20.7-21.3-3.1-6.7-3.3-7.6-3.3-18.6 0-11.3.1-11.7 3.7-19.1 5.9-11.8 17.4-21.6 29.3-24.9 1.7-.4 7.8-.7 13.6-.6 10.2.2 11 .4 18.2 4.1zm53.2 109.5c16.6 17.3 18.7 20.6 13 20.6-2.6 0-5.4-2.4-19.2-16.6l-16.2-16.5 2.2-2.2c1.2-1.2 2.6-2.1 3.2-2.1.5.1 8.2 7.6 17 16.8z"/><path d="M93.3 85.8c-1.9 1.2-5.7 7.3-8.2 13.2-1.9 4.4-2.3 6.6-1.9 12.1.8 11.1 7.9 23.2 16 27.5 2.3 1.2 2.9 1.2 4.2-.1 2-2 1.3-3.4-2.9-6.5-2-1.4-5-4.8-6.8-7.5-3-4.7-3.2-5.5-3.2-14.6 0-9.3.1-9.7 3.8-15.8 3.7-5.9 4.2-9.1 1.5-9.1-.7 0-1.8.4-2.5.8zM146.8 108.2c-.9.7-1.9 3.4-2.2 5.9-.4 2.6-1.5 6.3-2.5 8.2-1.8 3.5-1.8 3.7 0 5.3 1.6 1.4 2.1 1.5 3.4.4 2.7-2.2 4.6-8.2 4.8-14.4.2-6.1-.7-7.5-3.5-5.4z"/></g></svg>